# xmcd
# Track frame offsets:
# 150
# 14568
# 26283
# 43508
# 57043
# 70983
# 80350
# 95338
# 105460
# 118565
# 132743
# 147830
# 157563
# 169030
# 181695
# 193170
# 206775
# 220005
# 232993
# 241278
# 257935
# 269690
# 279885
# 294230
#
# Disc length: 4174 seconds
# Revision: 2
# Processed by: cddbd v1.4PL0 Copyright (c) Steve Scherf et al.
# Submitted via: VisiTrax 2.9.7.197 - For more info visit www.synapsa.com
#
DISCID=4d104c18
DTITLE=Collections - The Time-Life Treasury Of Christmas, Vol II, Disk 1
DYEAR=1900
DGENRE=
TTITLE0=Nat King Cole - The Christmas Song
TTITLE1=Bing Crosby and The Andrews Sisters - Jingle Bells
TTITLE2=Roger Whittaker - The Little Drummer Boy
TTITLE3=Arthur Fiedler And The Boston Pops - Sleigh Ride
TTITLE4=Harry Belafonte - I Heard The Bells On Christmas Day
TTITLE5=Eddy Arnold - Up On The House Top
TTITLE6=Julie Andrews - Irish Carol
TTITLE7=Chet Atkins - Jolly Old St. Nicholas
TTITLE8=Perry Como - Bless This House
TTITLE9=The Canadian Brass - Medley: O Little Town Of Bethlehem, It Came Upo
TTITLE9=n The Midnight Clear
TTITLE10=Glen Campbell - Christmas Is For Children
TTITLE11=Elvis Presley - Blue Christmas
TTITLE12=Red Foley - Frosty The Snowman
TTITLE13=Jim Reeves - An Old Christmas Carol
TTITLE14=Vienna Boys Choir - In Dulci Jubilo
TTITLE15=Ed Ames - O Come All Ye Faithful
TTITLE16=Sergio Franchi - Silent Night
TTITLE17=Perry Como - There's No Christmas Like A Home Christmas
TTITLE18=Beach Boys - Christmas Day
TTITLE19=Alabama - Tennessee Christmas
TTITLE20=Morton Gould and RCA Symphony Orchestra - Home For Christmas
TTITLE21=King's College Cambridge Choir - Coventy Carol
TTITLE22=Roger Whittaker - The Holly And The Ivy
TTITLE23=Luciano Pavarotti - O Holy Night
EXTD=
EXTT0=
EXTT1=
EXTT2=
EXTT3=
EXTT4=
EXTT5=
EXTT6=
EXTT7=
EXTT8=
EXTT9=
EXTT10=
EXTT11=
EXTT12=
EXTT13=
EXTT14=
EXTT15=
EXTT16=
EXTT17=
EXTT18=
EXTT19=
EXTT20=
EXTT21=
EXTT22=
EXTT23=
PLAYORDER=
